<?xml version="1.0" standalone="no"?>
<!DOCTYPE svg PUBLIC "-//W3C//DTD SVG 20010904//EN"
 "http://www.w3.org/TR/2001/REC-SVG-20010904/DTD/svg10.dtd">
<svg version="1.0" xmlns="http://www.w3.org/2000/svg"
 width="300.000000pt" height="300.000000pt" viewBox="0 0 300.000000 300.000000"
 preserveAspectRatio="xMidYMid meet">
<metadata>
Created by potrace 1.11, written by Peter Selinger 2001-2013
</metadata>
<g transform="translate(0.000000,300.000000) scale(0.100000,-0.100000)"
fill="#000000" stroke="none">
<path d="M1295 2715 c-312 -50 -591 -220 -785 -477 -96 -127 -192 -341 -217
-483 -2 -16 -8 -49 -13 -73 -22 -119 -6 -332 36 -494 96 -372 404 -698 779
-823 76 -26 89 -29 145 -40 14 -2 48 -9 75 -14 53 -10 322 -8 365 3 14 4 41 9
60 12 55 9 209 63 281 99 171 84 319 207 434 360 54 72 145 228 145 249 0 7 5
17 12 24 7 7 8 12 4 12 -5 0 -4 6 2 12 5 7 17 38 27 68 49 164 66 364 44 528
-42 313 -219 615 -473 808 -59 45 -212 134 -229 134 -7 0 -17 4 -23 9 -19 19
-188 70 -289 87 -76 13 -295 12 -380 -1z"/>
</g>
</svg>
